<svg width="91" height="91" viewBox="0 0 91 91" fill="none" xmlns="http://www.w3.org/2000/svg">
<path d="M90.668 35.091C90.838 34.448 90.748 33.765 90.418 33.189L78.813 13.115C78.118 11.92 76.588 11.508 75.391 12.201L65.657 17.82C63.866 16.537 61.95 15.429 59.93 14.513V3.26901C59.93 1.88601 58.809 0.765015 57.424 0.765015H34.23C32.845 0.765015 31.726 1.88601 31.726 3.26901V14.515C29.835 15.376 28.027 16.408 26.32 17.601L16.642 11.865C16.07 11.527 15.39 11.431 14.746 11.594C14.103 11.76 13.549 12.172 13.211 12.744L1.38701 32.69C1.04901 33.26 0.951012 33.944 1.11601 34.588C1.28201 35.231 1.69401 35.783 2.26601 36.121L11.948 41.855C11.794 43.16 11.719 44.378 11.719 45.55C11.719 46.589 11.78 47.667 11.908 48.859L2.16001 54.491C1.58401 54.825 1.16401 55.372 0.994012 56.012C0.820012 56.653 0.912012 57.338 1.24401 57.912L12.844 77.988C13.535 79.185 15.069 79.597 16.266 78.902L26.002 73.281C27.795 74.566 29.713 75.672 31.727 76.588V87.832C31.727 89.217 32.846 90.336 34.231 90.336H57.424C58.809 90.336 59.93 89.217 59.93 87.832V76.589C61.819 75.73 63.627 74.694 65.332 73.501L75.016 79.237C76.204 79.942 77.743 79.548 78.448 78.358L90.27 58.413C90.606 57.841 90.704 57.157 90.541 56.515C90.375 55.872 89.963 55.32 89.389 54.982L79.713 49.248C79.869 47.934 79.943 46.73 79.943 45.553C79.943 44.502 79.88 43.41 79.754 42.24L89.5 36.613C90.074 36.282 90.496 35.733 90.668 35.091ZM59.242 45.55C59.242 52.946 53.224 58.964 45.826 58.964C38.43 58.964 32.414 52.946 32.414 45.55C32.414 38.157 38.43 32.14 45.826 32.14C53.225 32.14 59.242 38.157 59.242 45.55Z" fill="white"/>
</svg>
